<?xml version="1.0" encoding="UTF-8"?>
<svg width="16px" height="16px" viewBox="0 0 16 16" version="1.1" xmlns="http://www.w3.org/2000/svg" xmlns:xlink="http://www.w3.org/1999/xlink">
    <title>按揭</title>
    <defs>
        <rect id="path-1" x="0" y="0" width="16" height="16"></rect>
    </defs>
    <g id="服务概览" stroke="none" stroke-width="1" fill="none" fill-rule="evenodd">
        <g id="宽度等分备份-4" transform="translate(-476.000000, -147.000000)">
            <g id="编组-6" transform="translate(450.000000, 130.000000)">
                <g id="编组-5" transform="translate(2.000000, 2.000000)">
                    <g id="按揭" transform="translate(24.000000, 15.000000)">
                        <mask id="mask-2" fill="white">
                            <use xlink:href="#path-1"></use>
                        </mask>
                        <use id="矩形" fill-opacity="0" fill="#D8D8D8" xlink:href="#path-1"></use>
                        <path d="M8.1516223,0 C11.1530963,0 13.5860372,2.43294083 13.5860372,5.43441487 C13.5860372,7.35977935 12.5848981,9.05121364 11.0747559,10.0165649 C11.2214631,10.093379 11.3609157,10.1925377 11.4802226,10.3118447 C11.4802226,11.1627764 10.9166781,11.4682712 10.6649967,11.6274825 C9.01136371,12.2812469 6.70006037,12.0828907 5.78550778,12.0828907 C5.34202981,12.0828907 5.27677438,12.3121764 5.27677438,12.538299 C5.27677438,12.764931 5.43224959,12.961037 5.78550778,12.961037 L5.78550778,12.961037 L7.40655553,12.961037 C8.81948217,12.961037 10.5970878,12.7844185 11.6568411,11.9013686 C12.1866329,11.3714919 12.3632514,11.0182549 12.3632514,10.4883782 L12.3632514,10.4883782 L13.9528814,10.135205 C14.4826732,9.95858647 15.365808,9.95858647 15.719045,10.6649967 C15.8956847,11.3714919 15.719045,12.0780083 15.365808,12.4312452 C14.4826732,13.1376767 10.2476506,15.8233603 9.01136371,16 L9.01136371,16 L7.94778928,16 C6.0050072,16 3.00253544,15.0804588 0.353258194,14.1974301 C0.176618483,14.1974301 0,14.0207904 0,13.8441719 L0,13.8441719 L0,10.135205 C0,9.95858647 0.176618483,9.78196799 0.353258194,9.78196799 L0.353258194,9.78196799 L4.89074198,9.78224471 C3.57089066,8.7907954 2.71720743,7.21234266 2.71720743,5.43441487 C2.71720743,2.43294083 5.15014827,0 8.1516223,0 Z M9.95466667,5.47466667 C9.32266667,5.47466667 8.74666667,5.82666667 8.74666667,6.58666667 L8.74666667,7.34666667 C8.74666667,8.10666667 9.32266667,8.45866667 9.95466667,8.45866667 C10.5866667,8.45866667 11.1626667,8.10666667 11.1626667,7.34666667 L11.1626667,6.58666667 C11.1626667,5.82666667 10.5866667,5.47466667 9.95466667,5.47466667 Z M9.95466667,2.71466667 L8.94666667,2.71466667 L6.23466667,8.41066667 L7.24266667,8.41066667 L9.95466667,2.71466667 Z M9.95466667,6.30666667 C10.1146667,6.30666667 10.2346667,6.38666667 10.2346667,6.61866667 L10.2346667,7.31466667 C10.2346667,7.54666667 10.1146667,7.62666667 9.95466667,7.62666667 C9.79466667,7.62666667 9.67466667,7.54666667 9.67466667,7.31466667 L9.67466667,6.61866667 C9.67466667,6.38666667 9.79466667,6.30666667 9.95466667,6.30666667 Z M6.23466667,2.66666667 C5.60266667,2.66666667 5.02666667,3.01866667 5.02666667,3.77866667 L5.02666667,4.53866667 C5.02666667,5.29866667 5.60266667,5.65066667 6.23466667,5.65066667 C6.86666667,5.65066667 7.44266667,5.29866667 7.44266667,4.53866667 L7.44266667,3.77866667 C7.44266667,3.01866667 6.86666667,2.66666667 6.23466667,2.66666667 Z M6.23466667,3.49866667 C6.39466667,3.49866667 6.51466667,3.57866667 6.51466667,3.81066667 L6.51466667,4.50666667 C6.51466667,4.73866667 6.39466667,4.81866667 6.23466667,4.81866667 C6.07466667,4.81866667 5.95466667,4.73866667 5.95466667,4.50666667 L5.95466667,3.81066667 C5.95466667,3.57866667 6.07466667,3.49866667 6.23466667,3.49866667 Z" id="形状结合" fill="#517DFE" mask="url(#mask-2)"></path>
                    </g>
                </g>
            </g>
        </g>
    </g>
</svg>