<?xml version="1.0" encoding="UTF-8"?>
<svg width="16px" height="16px" viewBox="0 0 16 16" version="1.1" xmlns="http://www.w3.org/2000/svg" xmlns:xlink="http://www.w3.org/1999/xlink">
    <title>产权</title>
    <defs>
        <rect id="path-1" x="0" y="0" width="16" height="16"></rect>
    </defs>
    <g id="服务概览" stroke="none" stroke-width="1" fill="none" fill-rule="evenodd">
        <g id="宽度等分备份-4" transform="translate(-1106.000000, -147.000000)">
            <g id="编组-6备份-2" transform="translate(1080.000000, 130.000000)">
                <g id="编组-5" transform="translate(2.000000, 2.000000)">
                    <g id="产权" transform="translate(24.000000, 15.000000)">
                        <mask id="mask-2" fill="white">
                            <use xlink:href="#path-1"></use>
                        </mask>
                        <use id="矩形" fill-opacity="0" fill="#D8D8D8" xlink:href="#path-1"></use>
                        <path d="M13.6666667,0 C14.7712362,0 15.6666667,0.8954305 15.6666667,2 L15.666,10.779 L12.8056699,8.43094365 C12.7263204,8.3580032 12.6181684,8.34584646 12.529218,8.39447343 L12.478536,8.43094365 L8.76255363,11.4814876 C8.51660141,11.7641231 8.41224383,12.0877059 8.48539814,12.3771863 C8.55855246,12.6666667 8.76380845,12.8748638 8.92800674,12.9145703 L8.97762127,12.923608 L8.97762127,12.923608 L9.12824005,12.9363501 C9.15905315,12.9378812 9.19272123,12.9391159 9.2292443,12.9400544 L9.48264253,12.9421296 L9.48264253,12.9421296 L9.8045604,12.9370936 L9.804,16 L3,16 C1.8954305,16 1,15.1045695 1,14 L1,2 C1,0.8954305 1.8954305,0 3,0 L13.6666667,0 Z M12.7540656,9.38383057 L15.8703567,12.0114007 C15.9632492,12.0897251 15.9771403,12.231076 15.9013833,12.3271166 C15.8601651,12.3793708 15.7984043,12.409692 15.7331864,12.409692 L14.823457,12.409692 L14.823457,15.4764134 C14.823457,15.7655823 14.5967233,16 14.317033,16 L10.9167576,16 C10.6370673,16 10.4103336,15.7655823 10.4103336,15.4764134 L10.4103336,12.409692 L9.50060419,12.409692 C9.38073694,12.409692 9.28356533,12.3092272 9.28356533,12.1852977 C9.28356533,12.1178696 9.31289256,12.0540158 9.36343393,12.0114007 L12.479725,9.38383057 C12.5595778,9.31650092 12.6742128,9.31650092 12.7540656,9.38383057 Z M9.16666667,8.66666667 L4.16666667,8.66666667 C3.89052429,8.66666667 3.66666667,8.89052429 3.66666667,9.16666667 C3.66666667,9.41212656 3.84354183,9.61627504 4.07679103,9.658611 L4.16666667,9.66666667 L9.16666667,9.66666667 C9.44280904,9.66666667 9.66666667,9.44280904 9.66666667,9.16666667 C9.66666667,8.92120678 9.48979151,8.7170583 9.2565423,8.67472234 L9.16666667,8.66666667 Z M7.16666667,6.66666667 L4.16666667,6.66666667 C3.89052429,6.66666667 3.66666667,6.89052429 3.66666667,7.16666667 C3.66666667,7.41212656 3.84354183,7.61627504 4.07679103,7.658611 L4.16666667,7.66666667 L7.16666667,7.66666667 C7.44280904,7.66666667 7.66666667,7.44280904 7.66666667,7.16666667 C7.66666667,6.92120678 7.48979151,6.7170583 7.2565423,6.67472234 L7.16666667,6.66666667 Z M5.43519374,1.82025161 L5.39764583,1.87842908 L4.882953,2.92131067 L3.73206483,3.08854451 C3.66677372,3.09803187 3.60643099,3.12877802 3.56037841,3.17602311 C3.46124952,3.2777189 3.44887186,3.4317902 3.52207369,3.54656454 L3.56580081,3.60025255 L4.39859131,4.41202266 L4.20199614,5.55826045 C4.19084309,5.62328774 4.20143749,5.69017817 4.23213921,5.74857631 C4.29822514,5.87427921 4.44093075,5.93366172 4.57270824,5.89950986 L4.63728099,5.87451341 L5.66666667,5.33333333 L6.69605234,5.87451341 C6.75445048,5.90521513 6.82134091,5.91580953 6.8863682,5.90465648 C7.02634044,5.88064936 7.12691501,5.76327846 7.13515615,5.62739712 L7.13133719,5.55826045 L6.93474202,4.41202266 L7.76753252,3.60025255 C7.81477762,3.55419996 7.84552377,3.49385724 7.85501112,3.42856613 C7.8754328,3.28802601 7.79488569,3.1561043 7.66820151,3.10627687 L7.60126851,3.08854451 L6.45038034,2.92131067 L5.9356875,1.87842908 C5.90648843,1.8192653 5.85860017,1.77137704 5.79943639,1.74217797 C5.67208544,1.67932652 5.52173001,1.71516531 5.43519374,1.82025161 Z M12,14 L13.3333333,14 L13.3333333,16 L12,16 L12,14 Z" id="形状" fill="#517DFE" mask="url(#mask-2)"></path>
                    </g>
                </g>
            </g>
        </g>
    </g>
</svg>