<?xml version="1.0" encoding="UTF-8"?>
<svg width="16px" height="16px" viewBox="0 0 16 16" version="1.1" xmlns="http://www.w3.org/2000/svg" xmlns:xlink="http://www.w3.org/1999/xlink">
    <title>入伙</title>
    <defs>
        <rect id="path-1" x="0" y="0" width="16" height="16"></rect>
    </defs>
    <g id="服务概览" stroke="none" stroke-width="1" fill="none" fill-rule="evenodd">
        <g id="宽度等分备份-4" transform="translate(-896.000000, -147.000000)">
            <g id="编组-6备份" transform="translate(870.000000, 130.000000)">
                <g id="编组-5" transform="translate(2.000000, 2.000000)">
                    <g id="入伙" transform="translate(24.000000, 15.000000)">
                        <mask id="mask-2" fill="white">
                            <use xlink:href="#path-1"></use>
                        </mask>
                        <use id="矩形" fill-opacity="0" fill="#D8D8D8" xlink:href="#path-1"></use>
                        <path d="M7.05786138,1.19663578 C7.36709607,0.934454739 7.82060526,0.934454739 8.12989833,1.19663578 L8.12989833,1.19663578 L11.468625,4.4417027 C10.9126408,4.51345076 5.82240156,5.175004 5.82240156,10.202544 C5.82240156,14.0135195 8.39093125,15.0088656 8.7506445,15.2121233 L8.7506445,15.2121233 L1.99445712,15.2121233 C1.8567211,15.2123561 1.7245311,15.1577715 1.62707674,15.0603172 C1.52970021,14.9629406 1.47505727,14.8307701 1.47534916,14.6930146 L1.47534916,14.6930146 L1.47534916,8.09723387 L1.36672491,8.18990114 C1.01660531,8.48535834 0.493332967,8.4417296 0.197019543,8.0922911 C0.054418586,7.92460654 -0.015441872,7.70696883 0.00286974109,7.48759921 C0.0212008139,7.26822959 0.126244477,7.06526452 0.294707426,6.92357818 L0.294707426,6.92357818 Z M11.3679792,5.60942318 C13.9257087,5.61323729 15.997801,7.68661395 16,10.2443435 C15.9972562,12.8015476 13.9251833,14.8740096 11.3679792,14.8773567 C8.80902371,14.8751578 6.73412919,12.803299 6.72803829,10.2443435 C6.73298107,7.68462905 8.80826478,5.61156375 11.3679792,5.60942318 Z M12.4689722,7.56718278 C12.0508214,7.56596357 11.6495227,7.7316827 11.3540655,8.02752909 C11.0561564,8.3264112 10.8907486,8.72298119 10.891741,9.14342828 C10.8925,9.42407662 10.9696578,9.69931514 11.1149248,9.93944831 L11.1149248,9.93944831 L8.80643557,12.2460305 C8.65219769,12.400424 8.65219769,12.6505011 8.80643557,12.8049725 C8.88024635,12.879153 8.9806586,12.9208942 9.08541036,12.9208942 C9.19008429,12.9208942 9.29049654,12.879153 9.36438516,12.8049725 L9.36438516,12.8049725 L10.1046141,12.0676236 L10.5639612,12.5269902 C10.6383169,12.5997307 10.7379702,12.6407712 10.8419436,12.6415496 C10.9463256,12.6411604 11.0464265,12.600042 11.1209184,12.5269902 C11.274553,12.3723047 11.274553,12.1226557 11.1209184,11.9680481 L11.1209184,11.9680481 L10.6605788,11.5067161 L11.669897,10.4973979 C12.2870626,10.8653815 13.0752598,10.7667985 13.5828865,10.258335 C13.8798032,9.9604259 14.0431482,9.5658408 14.0441407,9.14342828 C14.0441407,8.72193036 13.8807957,8.3264112 13.5828865,8.02852154 C13.2849774,7.73160486 12.8893999,7.56718278 12.4689722,7.56718278 Z M12.4549807,8.35431231 C12.6638031,8.35371321 12.8640827,8.43702035 13.0109454,8.58547868 C13.1584307,8.73590246 13.2391497,8.93316582 13.2391497,9.14342828 C13.2391497,9.35361291 13.1584307,9.55291954 13.0109454,9.70235086 C12.6987528,10.0014081 12.2061879,10.0005713 11.8950657,9.70038543 C11.7472106,9.55237467 11.6642732,9.35170585 11.664661,9.14251367 C11.6650321,8.93332149 11.7486506,8.73286674 11.8970311,8.58547868 C12.0446527,8.43686467 12.245555,8.35363537 12.4549807,8.35431231 Z M3.26375743,2.46395119 C3.60840884,2.46447661 3.88746148,2.74405466 3.88746148,3.08862823 L3.88746148,3.08862823 L3.88746148,3.26004906 L1.45444941,5.29055592 L1.45444941,3.08862823 C1.45444941,2.74405466 1.73350204,2.46447661 2.07815346,2.46395119 L2.07815346,2.46395119 Z" id="形状结合" fill="#517DFE" mask="url(#mask-2)"></path>
                    </g>
                </g>
            </g>
        </g>
    </g>
</svg>